<svg width="24" height="24" viewBox="0 0 24 24" fill="none" xmlns="http://www.w3.org/2000/svg">
<path fill-rule="evenodd" clip-rule="evenodd" d="M6.625 6.12652L14.2171 8.7433L14.2171 16.25V18.378L6.625 15.8021V6.12652ZM9.73131 5.87501L15.0458 7.70675L15.4671 8.29764L15.4671 15.625H17.375V5.87501L16.9343 5.87501L14.1581 5.875L9.73131 5.87501ZM18 5.25002L18 4.62502L18.625 5.25002V16.25L18 16.875H15.4671V19.25L14.6413 19.8419L5.79919 16.8419L5.375 16.25V5.25002L5.99999 4.62502L14.1581 4.625L16.9343 4.62501L17.7204 4.62502L17.9285 4.62502L17.9819 4.62502L17.9955 4.62502L17.9989 4.62502H17.9997H17.9999L18 5.25002Z" fill="#262525"/>
</svg>
