<svg width="24" height="24" viewBox="0 0 24 24" fill="none" xmlns="http://www.w3.org/2000/svg">
<path fill-rule="evenodd" clip-rule="evenodd" d="M12 5.625C8.47918 5.625 5.625 8.47918 5.625 12C5.625 15.5208 8.47918 18.375 12 18.375C15.5208 18.375 18.375 15.5208 18.375 12C18.375 8.47918 15.5208 5.625 12 5.625ZM4.375 12C4.375 7.78883 7.78883 4.375 12 4.375C16.2112 4.375 19.625 7.78883 19.625 12C19.625 16.2112 16.2112 19.625 12 19.625C7.78883 19.625 4.375 16.2112 4.375 12ZM11.375 12V7H12.625V11.7411L14.4419 13.5581L13.5581 14.4419L11.5581 12.4419L11.375 12.2589V12Z" fill="#262525"/>
</svg>
