<svg width="24" height="24" viewBox="0 0 24 24" fill="none" xmlns="http://www.w3.org/2000/svg">
<path fill-rule="evenodd" clip-rule="evenodd" d="M8.37618 5.62503C8.33513 5.6257 8.29706 5.63443 8.24116 5.69014C8.16352 5.76751 8.13962 5.8313 8.13183 5.88741C8.12274 5.95287 8.13018 6.05498 8.18924 6.20378C8.31277 6.51505 8.61231 6.90589 9.06879 7.32466C9.63301 7.84228 10.351 8.32547 11.0294 8.68145C11.0106 8.64105 10.991 8.59983 10.9706 8.55781C10.7007 8.00293 10.325 7.39396 9.9122 6.86839C9.49094 6.33211 9.06962 5.9324 8.72095 5.74001C8.54992 5.64563 8.43729 5.62405 8.37618 5.62503ZM9.36988 9.14253C8.95895 8.86476 8.56696 8.56062 8.22376 8.24577C7.71234 7.77659 7.25293 7.23318 7.02739 6.66488C6.9119 6.37389 6.84728 6.04987 6.89371 5.71549C6.94144 5.37177 7.10064 5.062 7.35881 4.80473C7.63871 4.52579 7.98375 4.3812 8.35603 4.3752C8.70825 4.36952 9.03918 4.48793 9.32486 4.64557C9.88962 4.9572 10.4344 5.50957 10.8952 6.09623C11.3211 6.6384 11.7085 7.2526 12.0065 7.83441C12.0156 7.81637 12.0249 7.79836 12.0342 7.78038C12.3669 7.13667 12.7986 6.49175 13.2656 5.94579C13.7253 5.4084 14.2536 4.92643 14.7904 4.65617C15.3266 4.38623 16.0418 4.26038 16.6198 4.78441C16.895 5.03392 17.067 5.34403 17.1229 5.69287C17.1771 6.0306 17.1158 6.36104 17.0034 6.65771C16.7832 7.23866 16.3237 7.8038 15.8068 8.29134C15.4918 8.5885 15.1327 8.87766 14.7531 9.14253L18 9.14255L18.625 9.76755V14.551V19L18 19.625L12 19.625L6 19.625L5.375 19V14.551V9.76755L6 9.14255L9.36988 9.14253ZM11.375 10.3925L6.625 10.3925V13.926L11.375 13.926V10.3925ZM11.375 15.176L6.625 15.176V18.375L11.375 18.375V15.176ZM12.625 18.375V15.176L17.375 15.176V18.375L12.625 18.375ZM17.375 13.926L12.625 13.926V10.3925L17.375 10.3925V13.926ZM12.9486 8.76402C13.6269 8.43093 14.3645 7.93348 14.9491 7.38204C15.4082 6.94896 15.7117 6.53861 15.8345 6.21466C15.8936 6.05887 15.8989 5.9545 15.8887 5.89076C15.8802 5.83812 15.857 5.78009 15.7802 5.71046C15.7798 5.71007 15.7793 5.70966 15.7788 5.70923C15.755 5.68741 15.6722 5.6117 15.3525 5.77267C15.0271 5.93649 14.6256 6.27883 14.2155 6.75831C13.8127 7.22923 13.4344 7.79377 13.1445 8.35443C13.0724 8.49401 13.0069 8.63096 12.9486 8.76402Z" fill="#262525"/>
</svg>
