<svg width="24" height="24" viewBox="0 0 24 24" fill="none" xmlns="http://www.w3.org/2000/svg">
<path fill-rule="evenodd" clip-rule="evenodd" d="M8.67835 6.62503C8.64177 6.62558 8.61521 6.63286 8.57607 6.66934C8.51495 6.72629 8.5075 6.76141 8.50493 6.77876C8.50087 6.80609 8.50091 6.87049 8.54961 6.98524C8.65363 7.23033 8.91542 7.55502 9.33268 7.91295C9.80041 8.31418 10.3856 8.69193 10.9542 8.98563C10.7162 8.54921 10.4015 8.08125 10.0582 7.67257C9.67588 7.21751 9.29613 6.8815 8.98442 6.72067C8.83182 6.64193 8.73188 6.62422 8.67835 6.62503ZM9.31013 9.46145C9.02849 9.27106 8.76066 9.06916 8.51882 8.8617C8.04884 8.45854 7.61492 7.98244 7.39896 7.47361C7.28767 7.2114 7.22165 6.91055 7.26848 6.59516C7.3168 6.26979 7.4772 5.98472 7.7239 5.75484C7.99258 5.50447 8.3172 5.38033 8.6595 5.37517C8.98486 5.37026 9.29152 5.47255 9.55758 5.60982C10.0832 5.88101 10.589 6.36108 11.0153 6.86854C11.3912 7.31608 11.735 7.82057 12.0058 8.30422C12.3129 7.7531 12.7079 7.20324 13.1343 6.73705C13.5599 6.2718 14.0503 5.85321 14.5493 5.6183C15.0436 5.38562 15.7074 5.27184 16.2542 5.73536C16.5164 5.95772 16.6896 6.24258 16.7463 6.57307C16.801 6.89177 16.7382 7.19867 16.6299 7.46581C16.4191 7.98586 15.9852 8.48098 15.5099 8.90018C15.2909 9.0933 15.0491 9.28238 14.7937 9.46146L17.5 9.46147L18.125 10.0865V14.1866V18L17.5 18.625L12 18.625L6.5 18.625L5.875 18V14.1866V10.0865L6.5 9.46147L9.31013 9.46145ZM11.375 10.7114L7.125 10.7115V13.5616L11.375 13.5616V10.7114ZM11.375 14.8116L7.125 14.8116V17.375L11.375 17.375V14.8116ZM12.625 17.375V14.8116L16.875 14.8116V17.375L12.625 17.375ZM16.875 13.5616L12.625 13.5616V10.7114L16.875 10.7115V13.5616ZM13.0149 9.0663C13.5892 8.78522 14.1953 8.3929 14.683 7.96272C15.1024 7.59282 15.3679 7.25179 15.4715 6.99621C15.5204 6.87554 15.5187 6.80975 15.5143 6.78432C15.512 6.7707 15.5062 6.74 15.4458 6.68882C15.4457 6.68874 15.4456 6.68859 15.4454 6.68838C15.4385 6.68167 15.3689 6.61405 15.0817 6.74926C14.7903 6.88644 14.4284 7.17439 14.0566 7.58076C13.6916 7.97981 13.3491 8.45796 13.0872 8.93161C13.0621 8.97694 13.038 9.02186 13.0149 9.0663Z" fill="#262525"/>
</svg>
