<svg width="24" height="24" viewBox="0 0 24 24" fill="none" xmlns="http://www.w3.org/2000/svg">
<path fill-rule="evenodd" clip-rule="evenodd" d="M7.40197 10.5893H7L6.375 11.2143V17.5L7 18.125H17L17.625 17.5V11.2143L17 10.5893H16.598C16.5144 9.61928 16.2288 8.58085 15.6414 7.71934C14.9046 6.63875 13.7148 5.875 12 5.875C10.2852 5.875 9.09537 6.63876 8.35861 7.71935C7.77122 8.58086 7.48563 9.61929 7.40197 10.5893ZM8.65747 10.5893H15.3425C15.262 9.81667 15.0285 9.03941 14.6086 8.42351C14.0954 7.67077 13.2852 7.125 12 7.125C10.7148 7.125 9.90463 7.67077 9.39139 8.42352C8.97146 9.03942 8.73802 9.81668 8.65747 10.5893ZM16.375 11.8393H16H8H7.625V16.875H16.375V11.8393Z" fill="#262525"/>
</svg>
