<svg width="24" height="24" viewBox="0 0 24 24" fill="none" xmlns="http://www.w3.org/2000/svg">
<path fill-rule="evenodd" clip-rule="evenodd" d="M5.625 8.52688L11.375 10.6831V18.0981L5.625 15.9419V8.52688ZM12.625 18.0981L18.375 15.9419V8.52688L16.125 9.37063V12H14.875V9.83938L12.625 10.6831V18.0981ZM12 9.5825L13.7389 8.9304L8.58242 6.94909L6.78 7.625L12 9.5825ZM10.3462 6.28769L15.5027 8.26899L17.22 7.625L12 5.6675L10.3462 6.28769ZM4.78055 7.03979L11.7805 4.41479H12.2195L19.2195 7.03979L19.625 7.625V16.375L19.2195 16.9602L12.2195 19.5852H11.7805L4.78055 16.9602L4.375 16.375V7.625L4.78055 7.03979Z" fill="#262525"/>
</svg>
