<svg width="24" height="24" viewBox="0 0 24 24" fill="none" xmlns="http://www.w3.org/2000/svg">
<path fill-rule="evenodd" clip-rule="evenodd" d="M16.5581 6.55811L6.55811 16.5581L7.44199 17.442L17.442 7.44199L16.5581 6.55811ZM9.00005 8.00005C9.00005 8.55233 8.55234 9.00005 8.00005 9.00005C7.44777 9.00005 7.00005 8.55233 7.00005 8.00005C7.00005 7.44776 7.44777 7.00005 8.00005 7.00005C8.55234 7.00005 9.00005 7.44776 9.00005 8.00005ZM16.0001 17C16.5523 17 17.0001 16.5523 17.0001 16C17.0001 15.4478 16.5523 15 16.0001 15C15.4478 15 15.0001 15.4478 15.0001 16C15.0001 16.5523 15.4478 17 16.0001 17Z" fill="#262525"/>
</svg>
