<svg width="24" height="24" viewBox="0 0 24 24" fill="none" xmlns="http://www.w3.org/2000/svg">
<path d="M5.5 17.1333C5.5 18.1643 6.33574 19 7.36667 19H9.35C9.35 19 9.37745 16.6667 11.3333 16.6667C13.2892 16.6667 13.3167 19 13.3167 19H15.3C16.3309 19 17.1667 18.1643 17.1667 17.1333V15.15C17.1667 15.15 19.5 15.15 19.5 13.1667C19.5 11.1833 17.1667 11.1833 17.1667 11.1833V9.2C17.1667 8.16906 16.3309 7.33333 15.3 7.33333H13.3167C13.3167 7.33333 13.3167 5 11.3333 5C9.35 5 9.35 7.33333 9.35 7.33333H7.36667C6.33574 7.33333 5.5 8.16907 5.5 9.2V11.1833C5.5 11.1833 7.83333 11.2061 7.83333 13.1667C7.83333 15.1272 5.5 15.15 5.5 15.15V17.1333Z" stroke="#262525" stroke-width="1.25" stroke-linecap="round" stroke-linejoin="bevel"/>
</svg>
