<svg width="24" height="24" viewBox="0 0 24 24" fill="none" xmlns="http://www.w3.org/2000/svg">
<path fill-rule="evenodd" clip-rule="evenodd" d="M8.14815 16.444C7.03235 16.444 6.125 15.5366 6.125 14.4138C6.125 13.5949 6.60802 12.8888 7.305 12.5676L7.305 11.4324C6.60802 11.1112 6.125 10.4051 6.125 9.58621C6.125 8.46341 7.03235 7.55604 8.14815 7.55604C8.49009 7.55604 8.81054 7.64065 9.09163 7.78971L10.0018 7.33482C10.1547 6.36473 10.9928 5.625 12 5.625C13.0072 5.625 13.8453 6.36473 13.9982 7.33482L14.9084 7.78971C15.1895 7.64065 15.5099 7.55604 15.8519 7.55604C16.9676 7.55604 17.875 8.46341 17.875 9.58621C17.875 10.4051 17.392 11.1112 16.695 11.4324V12.5676C17.392 12.8888 17.875 13.5949 17.875 14.4138C17.875 15.5366 16.9676 16.444 15.8519 16.444C15.5099 16.444 15.1895 16.3593 14.9084 16.2103L13.9982 16.6652C13.8453 17.6353 13.0072 18.375 12 18.375C10.9928 18.375 10.1547 17.6353 10.0018 16.6652L9.09163 16.2103C8.81054 16.3593 8.49009 16.444 8.14815 16.444ZM4.875 14.4138C4.875 16.2238 6.33888 17.694 8.14815 17.694C8.43191 17.694 8.70769 17.6576 8.97085 17.5893C9.4598 18.7832 10.6307 19.625 12 19.625C13.3693 19.625 14.5402 18.7832 15.0291 17.5893C15.2923 17.6576 15.5681 17.694 15.8519 17.694C17.6611 17.694 19.125 16.2238 19.125 14.4138C19.125 13.4588 18.7177 12.5993 18.068 12C18.7177 11.4007 19.125 10.5412 19.125 9.58621C19.125 7.77618 17.6611 6.30604 15.8519 6.30604C15.5681 6.30604 15.2923 6.34236 15.0291 6.41068C14.5402 5.21679 13.3693 4.375 12 4.375C10.6307 4.375 9.4598 5.21679 8.97086 6.41068C8.70769 6.34236 8.43191 6.30604 8.14815 6.30604C6.33888 6.30604 4.875 7.77618 4.875 9.58621C4.875 10.5412 5.28235 11.4007 5.93196 12C5.28235 12.5993 4.875 13.4588 4.875 14.4138ZM9.625 12C9.625 10.6883 10.6883 9.625 12 9.625C13.3117 9.625 14.375 10.6883 14.375 12C14.375 13.3117 13.3117 14.375 12 14.375C10.6883 14.375 9.625 13.3117 9.625 12ZM12 8.375C9.99797 8.375 8.375 9.99797 8.375 12C8.375 14.002 9.99797 15.625 12 15.625C14.002 15.625 15.625 14.002 15.625 12C15.625 9.99797 14.002 8.375 12 8.375Z" fill="#262525"/>
</svg>
