<svg width="24" height="24" viewBox="0 0 24 24" fill="none" xmlns="http://www.w3.org/2000/svg">
<path fill-rule="evenodd" clip-rule="evenodd" d="M12 15.375C9.94673 15.375 7.87199 14.2688 6.69669 12C7.87199 9.7312 9.94673 8.625 12 8.625C14.0533 8.625 16.128 9.73121 17.3033 12C16.128 14.2688 14.0533 15.375 12 15.375ZM12 7.375C9.38174 7.375 6.78664 8.84927 5.43408 11.7347V12.2653C6.78664 15.1507 9.38174 16.625 12 16.625C14.6182 16.625 17.2134 15.1507 18.5659 12.2653L18.5659 11.7347C17.2133 8.84928 14.6182 7.375 12 7.375ZM12 14C13.1046 14 14 13.1046 14 12C14 10.8954 13.1046 10 12 10C10.8954 10 9.99999 10.8954 9.99999 12C9.99999 13.1046 10.8954 14 12 14Z" fill="#262525"/>
</svg>
